<?xml version="1.0" standalone="no"?>
<!DOCTYPE svg PUBLIC "-//W3C//DTD SVG 20010904//EN"
 "http://www.w3.org/TR/2001/REC-SVG-20010904/DTD/svg10.dtd">
<svg version="1.0" xmlns="http://www.w3.org/2000/svg"
 width="500.000000pt" height="500.000000pt" viewBox="0 0 500.000000 500.000000"
 preserveAspectRatio="xMidYMid meet">
<metadata>
Created by potrace 1.16, written by Peter Selinger 2001-2019
</metadata>
<g transform="translate(0.000000,500.000000) scale(0.100000,-0.100000)"
fill="#000000" stroke="none">
<path d="M1003 3285 c-13 -35 4 -44 88 -47 l83 -3 17 -45 c9 -25 40 -112 69
-195 29 -82 64 -184 79 -225 l27 -75 114 0 c96 0 115 2 113 15 -1 8 -31 101
-68 205 -36 105 -77 220 -90 258 l-23 67 153 0 c150 0 153 0 158 -22 2 -13 35
-108 71 -213 37 -104 74 -212 83 -240 8 -27 20 -56 25 -62 7 -9 44 -13 120
-13 l109 0 14 34 c8 19 31 81 50 137 20 57 43 122 51 144 7 22 29 83 47 135
l32 95 73 3 c73 3 73 3 70 30 l-3 27 -728 2 c-630 2 -729 0 -734 -12z m1257
-72 c-5 -16 -25 -73 -45 -128 -20 -55 -51 -145 -70 -200 -30 -89 -34 -97 -43
-75 -5 14 -21 59 -35 100 -40 114 -104 293 -112 313 -7 16 4 17 153 17 l161 0
-9 -27z"/>
<path d="M2575 3290 c-3 -6 -3 -19 0 -30 6 -18 15 -20 101 -20 58 0 94 -4 94
-10 0 -10 -42 -136 -134 -394 -25 -71 -43 -133 -40 -138 9 -15 43 -8 53 10 9
17 44 114 99 277 l17 50 5 -170 5 -170 115 0 115 0 3 278 2 278 203 -3 c222
-3 233 -6 296 -70 46 -46 79 -121 99 -227 10 -49 21 -93 24 -97 4 -4 14 -1 23
6 12 10 15 45 15 206 0 181 -1 195 -20 214 -19 19 -33 20 -544 20 -342 0 -527
-4 -531 -10z"/>
<path d="M1046 2582 c-6 -9 16 -89 34 -121 15 -28 38 -26 52 4 14 32 24 32 32
-1 5 -19 12 -25 29 -22 17 2 27 17 44 66 13 35 21 68 17 73 -11 19 -35 8 -46
-22 l-10 -30 -20 31 c-22 37 -38 35 -57 -8 l-15 -33 -10 33 c-11 32 -38 49
-50 30z"/>
<path d="M1642 2581 c-9 -5 -12 -27 -10 -72 3 -58 5 -64 26 -67 15 -2 25 3 30
18 l8 21 18 -20 c11 -12 25 -21 32 -21 26 0 25 22 -2 51 l-27 29 21 19 c25 21
29 51 8 51 -8 0 -22 -7 -31 -16 -15 -15 -17 -15 -34 0 -20 18 -21 19 -39 7z"/>
<path d="M1838 2584 c-5 -4 -8 -36 -8 -71 0 -50 4 -65 16 -70 10 -4 22 1 30
12 12 16 14 16 30 1 19 -20 51 -16 45 5 -5 21 -5 32 3 55 10 32 -22 64 -69 71
-22 2 -43 1 -47 -3z"/>
<path d="M2231 2581 c-8 -5 -11 -30 -9 -72 2 -51 6 -64 21 -67 10 -2 21 5 26
20 6 13 10 17 10 11 1 -20 41 -15 48 5 6 14 8 13 13 -8 3 -14 14 -26 23 -28
16 -3 18 4 15 69 -2 44 -8 74 -15 76 -6 2 -23 -12 -36 -33 l-25 -36 -16 30
c-17 33 -36 44 -55 33z"/>
<path d="M2880 2583 c-32 -12 -50 -37 -50 -69 0 -69 87 -101 129 -48 12 15 21
37 21 49 0 43 -59 84 -100 68z"/>
<path d="M3083 2580 c-72 -29 -45 -140 33 -140 67 0 100 88 48 129 -29 23 -46
25 -81 11z"/>
<path d="M3267 2583 c-4 -3 -7 -35 -7 -70 0 -50 4 -65 16 -70 11 -4 22 1 31
13 13 18 15 18 24 2 6 -10 18 -18 28 -18 15 0 17 9 17 62 -1 56 -4 64 -26 75
-27 14 -73 17 -83 6z"/>
<path d="M1510 2283 c4 -16 25 -75 45 -133 50 -142 155 -444 155 -447 0 -2 11
-3 24 -3 21 0 27 11 54 93 43 126 158 454 177 500 7 16 3 18 -26 15 -33 -3
-34 -4 -71 -113 -21 -60 -39 -114 -42 -120 -4 -12 -4 -12 -52 128 l-36 107
-119 0 -118 0 9 -27z"/>
<path d="M2040 2306 c0 -4 10 -33 84 -241 19 -55 55 -156 79 -225 46 -128 65
-157 91 -130 7 8 36 80 64 160 27 80 71 204 97 275 66 183 63 167 26 163 -31
-3 -34 -6 -68 -103 -19 -55 -38 -111 -42 -124 -6 -23 -8 -21 -23 20 -10 24
-29 81 -44 127 l-27 82 -118 0 c-66 0 -119 -2 -119 -4z"/>
<path d="M2770 2060 l0 -250 -94 0 c-86 0 -95 -2 -101 -20 -3 -11 -3 -24 0
-30 4 -7 188 -10 562 -8 l555 3 19 24 c17 21 19 41 19 230 0 113 -4 212 -9
220 -10 16 -39 8 -45 -11 -3 -7 -14 -56 -26 -108 -23 -99 -59 -191 -88 -224
-9 -10 -37 -32 -61 -48 l-45 -28 -223 0 -223 0 0 250 0 250 -120 0 -120 0 0
-250z"/>
</g>
</svg>
